<svg width="20" height="23" viewBox="0 0 20 23" fill="none" xmlns="http://www.w3.org/2000/svg">
<path d="M7.99997 20.9464V6.9604L3.40379 11.613C2.61717 12.4091 1.35102 12.3997 0.575614 11.5922C-0.199767 10.7845 -0.190607 9.48449 0.595927 8.6883L8.59607 0.591083L8.74764 0.452306C9.5295 -0.193944 10.674 -0.147671 11.4039 0.591083L19.4041 8.6883L19.5424 8.84312C20.1887 9.64496 20.1513 10.835 19.4244 11.5922C18.6975 12.3493 17.5394 12.4045 16.7493 11.7526L16.5962 11.613L12 6.9604V20.9464C12 22.0806 11.1046 23 10 23C8.89541 23 7.99997 22.0806 7.99997 20.9464Z" fill="#BA70F0"/>
</svg>
