<svg width="154" height="35" viewBox="0 0 154 35" fill="none" xmlns="http://www.w3.org/2000/svg">
<rect x="0.5" y="0.5" width="153" height="34" rx="17" stroke="#4B3162"/>
<path d="M21.0751 23.144C20.4885 23.144 19.9285 23.096 19.3951 23C18.8725 22.8933 18.3871 22.744 17.9391 22.552C17.5018 22.3493 17.1125 22.1093 16.7711 21.832L17.2991 20.52C17.6618 20.7867 18.0351 21.0107 18.4191 21.192C18.8031 21.3733 19.2138 21.512 19.6511 21.608C20.0885 21.6933 20.5631 21.736 21.0751 21.736C21.9818 21.736 22.6485 21.576 23.0751 21.256C23.5125 20.9253 23.7311 20.4987 23.7311 19.976C23.7311 19.688 23.6618 19.4427 23.5231 19.24C23.3951 19.0373 23.1818 18.8667 22.8831 18.728C22.5845 18.5787 22.1951 18.456 21.7151 18.36L20.0031 18.008C18.9898 17.7947 18.2325 17.4427 17.7311 16.952C17.2405 16.4613 16.9951 15.8 16.9951 14.968C16.9951 14.2853 17.1765 13.688 17.5391 13.176C17.9018 12.664 18.3978 12.2693 19.0271 11.992C19.6671 11.7147 20.4031 11.576 21.2351 11.576C21.7471 11.576 22.2325 11.6293 22.6911 11.736C23.1605 11.832 23.5925 11.9813 23.9871 12.184C24.3925 12.3867 24.7445 12.632 25.0431 12.92L24.4991 14.184C24.0405 13.7787 23.5445 13.48 23.0111 13.288C22.4778 13.0853 21.8805 12.984 21.2191 12.984C20.6965 12.984 20.2378 13.064 19.8431 13.224C19.4591 13.384 19.1605 13.608 18.9471 13.896C18.7445 14.184 18.6431 14.5253 18.6431 14.92C18.6431 15.368 18.7871 15.7253 19.0751 15.992C19.3631 16.2587 19.8431 16.4613 20.5151 16.6L22.2111 16.952C23.2778 17.176 24.0725 17.5227 24.5951 17.992C25.1178 18.4613 25.3791 19.0853 25.3791 19.864C25.3791 20.5147 25.2031 21.0907 24.8511 21.592C24.4991 22.0827 24.0031 22.4667 23.3631 22.744C22.7231 23.0107 21.9605 23.144 21.0751 23.144ZM28.0682 23V11.72H35.3643V13.064H29.6682V16.6H35.0282V17.944H29.6682V21.656H35.3643V23H28.0682ZM43.1549 23.144C42.3549 23.144 41.6295 23.0107 40.9789 22.744C40.3282 22.4773 39.7682 22.088 39.2989 21.576C38.8402 21.064 38.4882 20.456 38.2429 19.752C37.9975 19.0373 37.8749 18.2373 37.8749 17.352C37.8749 16.4667 37.9975 15.672 38.2429 14.968C38.4882 14.2533 38.8402 13.6453 39.2989 13.144C39.7575 12.632 40.3122 12.2427 40.9629 11.976C41.6135 11.7093 42.3442 11.576 43.1549 11.576C43.9549 11.576 44.6802 11.7093 45.3309 11.976C45.9815 12.2427 46.5362 12.6267 46.9949 13.128C47.4642 13.6293 47.8215 14.2373 48.0669 14.952C48.3122 15.656 48.4349 16.4507 48.4349 17.336C48.4349 18.2213 48.3122 19.0213 48.0669 19.736C47.8215 20.4507 47.4642 21.064 46.9949 21.576C46.5362 22.088 45.9815 22.4773 45.3309 22.744C44.6802 23.0107 43.9549 23.144 43.1549 23.144ZM43.1549 21.704C43.9015 21.704 44.5362 21.5333 45.0589 21.192C45.5922 20.8507 45.9975 20.3547 46.2749 19.704C46.5629 19.0533 46.7069 18.2693 46.7069 17.352C46.7069 16.4347 46.5682 15.6507 46.2909 15C46.0135 14.3493 45.6082 13.8587 45.0749 13.528C44.5522 13.1867 43.9122 13.016 43.1549 13.016C42.4082 13.016 41.7682 13.1867 41.2349 13.528C40.7122 13.8587 40.3069 14.3493 40.0189 15C39.7415 15.6507 39.6029 16.4347 39.6029 17.352C39.6029 18.2587 39.7415 19.0427 40.0189 19.704C40.3069 20.3547 40.7122 20.8507 41.2349 21.192C41.7682 21.5333 42.4082 21.704 43.1549 21.704ZM56.4683 23V11.72H58.1323V16.632H60.1483L59.7643 16.904L63.1083 11.72H64.9483L61.3163 17.192L60.6923 16.696C61.1296 16.7493 61.5243 16.8773 61.8763 17.08C62.2389 17.272 62.5589 17.5333 62.8363 17.864C63.1243 18.184 63.3803 18.5733 63.6042 19.032L65.5403 23H63.7483L62.2123 19.72C61.9243 19.112 61.5883 18.68 61.2043 18.424C60.8203 18.1573 60.3456 18.024 59.7803 18.024H58.1323V23H56.4683ZM67.7682 23V11.72H75.0642V13.064H69.3682V16.6H74.7282V17.944H69.3682V21.656H75.0642V23H67.7682ZM77.9901 23V11.72H79.5261V20.776H79.1741L86.0061 11.72H87.2541V23H85.7181V13.944H86.0541L79.2381 23H77.9901ZM82.6141 10.84C82.1021 10.84 81.6381 10.7547 81.2221 10.584C80.8168 10.4133 80.4648 10.168 80.1661 9.848C79.8781 9.51733 79.6648 9.128 79.5261 8.68L80.4061 8.36C80.6301 8.89333 80.9181 9.28267 81.2701 9.528C81.6221 9.76267 82.0755 9.88 82.6301 9.88C83.1848 9.88 83.6328 9.76267 83.9741 9.528C84.3261 9.29333 84.6355 8.90933 84.9021 8.376L85.7661 8.68C85.4781 9.42667 85.0568 9.976 84.5021 10.328C83.9581 10.6693 83.3288 10.84 82.6141 10.84ZM95.7367 23.144C94.5954 23.144 93.6194 22.9093 92.8087 22.44C91.9981 21.9707 91.3741 21.304 90.9367 20.44C90.5101 19.5653 90.2967 18.536 90.2967 17.352C90.2967 16.168 90.5101 15.144 90.9367 14.28C91.3741 13.416 91.9981 12.7493 92.8087 12.28C93.6194 11.8107 94.5954 11.576 95.7367 11.576C96.5047 11.576 97.2194 11.6987 97.8807 11.944C98.5527 12.1787 99.1127 12.52 99.5607 12.968L98.9847 14.296C98.4941 13.8587 97.9874 13.544 97.4647 13.352C96.9527 13.1493 96.3927 13.048 95.7847 13.048C94.5687 13.048 93.6407 13.4213 93.0007 14.168C92.3607 14.9147 92.0407 15.976 92.0407 17.352C92.0407 18.728 92.3607 19.7947 93.0007 20.552C93.6407 21.2987 94.5687 21.672 95.7847 21.672C96.3927 21.672 96.9527 21.576 97.4647 21.384C97.9874 21.1813 98.4941 20.8613 98.9847 20.424L99.5607 21.752C99.1127 22.2 98.5527 22.5467 97.8807 22.792C97.2194 23.0267 96.5047 23.144 95.7367 23.144ZM102.293 23V11.72H103.957V16.568H106.709C107.499 16.568 108.176 16.6907 108.741 16.936C109.307 17.1813 109.739 17.5387 110.037 18.008C110.336 18.4773 110.485 19.064 110.485 19.768C110.485 20.472 110.336 21.064 110.037 21.544C109.739 22.024 109.307 22.3867 108.741 22.632C108.176 22.8773 107.499 23 106.709 23H102.293ZM103.957 21.656H106.517C107.317 21.656 107.909 21.5013 108.293 21.192C108.677 20.8827 108.869 20.4133 108.869 19.784C108.869 19.144 108.677 18.6747 108.293 18.376C107.909 18.0667 107.317 17.912 106.517 17.912H103.957V21.656ZM112.021 23V11.72H113.669V23H112.021Z" fill="#8F6AAF"/>
<path d="M128 8L130.161 13.8393L136 16L130.161 18.1607L128 24L125.839 18.1607L120 16L125.839 13.8393L128 8Z" fill="#8F6AAF"/>
<path d="M139 17L140.35 20.6495L144 22L140.35 23.3505L139 27L137.65 23.3505L134 22L137.65 20.6495L139 17Z" fill="#8F6AAF"/>
</svg>
