<svg width="337" height="200" viewBox="0 0 337 200" fill="none" xmlns="http://www.w3.org/2000/svg">
<mask id="mask0_23_2659" style="mask-type:luminance" maskUnits="userSpaceOnUse" x="0" y="16" width="325" height="184">
<path d="M248.672 16C248.304 18.7608 248.112 21.578 248.112 24.4395C248.112 59.3956 276.45 87.7332 311.406 87.7334C315.742 87.7334 319.975 87.2961 324.065 86.4658V149.975C324.065 177.589 301.68 199.975 274.065 199.975H50C22.3858 199.975 7.27858e-06 177.589 0 149.975V66C0 38.3858 22.3858 16 50 16H248.672Z" fill="white"/>
</mask>
<g mask="url(#mask0_23_2659)">
<path d="M248.672 16L249.663 16.1321L249.814 15H248.672V16ZM324.065 86.4658H325.065V85.2424L323.866 85.4858L324.065 86.4658ZM248.672 16L247.681 15.8679C247.307 18.672 247.112 21.5333 247.112 24.4395H248.112H249.112C249.112 21.6227 249.301 18.8497 249.663 16.1321L248.672 16ZM248.112 24.4395H247.112C247.112 59.9478 275.898 88.7332 311.406 88.7334V87.7334V86.7334C277.002 86.7333 249.112 58.8433 249.112 24.4395H248.112ZM311.406 87.7334V88.7334C315.809 88.7334 320.109 88.2893 324.264 87.4458L324.065 86.4658L323.866 85.4858C319.841 86.3029 315.674 86.7334 311.406 86.7334V87.7334ZM324.065 86.4658H323.065V149.975H324.065H325.065V86.4658H324.065ZM324.065 149.975H323.065C323.065 177.037 301.127 198.975 274.065 198.975V199.975V200.975C302.232 200.975 325.065 178.141 325.065 149.975H324.065ZM274.065 199.975V198.975H50V199.975V200.975H274.065V199.975ZM50 199.975V198.975C22.9381 198.975 1.00001 177.037 1 149.975H0H-1C-0.999993 178.141 21.8335 200.975 50 200.975V199.975ZM0 149.975H1V66H0H-1V149.975H0ZM0 66H1C1 38.938 22.938 17 50 17V16V15C21.8335 15 -1 37.8335 -1 66H0ZM50 16V17H248.672V16V15H50V16Z" fill="white"/>
</g>
<path d="M303 0C321.778 0 337 15.2223 337 34C337 52.7777 321.778 68 303 68C284.222 68 269 52.7777 269 34C269 15.2223 284.222 0 303 0ZM317 26.5449C319.5 24.545 315.5 20.5452 313.5 22.5449L296 37.0449L297 26.5449C297.5 22.0451 292 21.5451 291.5 26.0449L290 44.5449C290 45.4998 290 45.5 291 46L310 47.5449C313 47.5449 313.5 43.0449 310.5 42.5449L300 41.0449L317 26.5449Z" fill="white"/>
</svg>
