<svg width="22" height="22" viewBox="0 0 22 22" fill="none" xmlns="http://www.w3.org/2000/svg">
<path d="M11.0008 0H10.9953C4.93017 0 -0.00195312 4.9335 -0.00195312 11C-0.00195312 13.4062 0.773547 15.6365 2.09217 17.4474L0.721297 21.5339L4.94942 20.1823C6.6888 21.3345 8.76367 22 11.0008 22C17.0659 22 21.998 17.0651 21.998 11C21.998 4.93488 17.0659 0 11.0008 0ZM17.4014 15.5334C17.136 16.2827 16.0828 16.9042 15.2427 17.0857C14.6679 17.2081 13.9172 17.3057 11.3899 16.258C8.1573 14.9188 6.07555 11.6339 5.9133 11.4207C5.75792 11.2076 4.60705 9.68138 4.60705 8.10287C4.60705 6.52437 5.40867 5.75575 5.7318 5.42575C5.99717 5.15488 6.4358 5.03113 6.85655 5.03113C6.99267 5.03113 7.11505 5.038 7.22505 5.0435C7.54817 5.05725 7.71042 5.0765 7.92355 5.58663C8.18892 6.226 8.83517 7.8045 8.91217 7.96675C8.99055 8.129 9.06892 8.349 8.95892 8.56213C8.8558 8.78213 8.76505 8.87975 8.6028 9.06675C8.44055 9.25375 8.28655 9.39675 8.1243 9.5975C7.9758 9.77213 7.80805 9.95913 7.99505 10.2823C8.18205 10.5985 8.8283 11.6531 9.7798 12.5001C11.0077 13.5932 12.0032 13.9425 12.3593 14.091C12.6247 14.201 12.9409 14.1749 13.1348 13.9686C13.3809 13.7033 13.6848 13.2633 13.9942 12.8301C14.2142 12.5194 14.4919 12.4809 14.7834 12.5909C15.0804 12.694 16.652 13.4709 16.9752 13.6317C17.2983 13.794 17.5114 13.871 17.5898 14.0071C17.6668 14.1433 17.6668 14.7826 17.4014 15.5334Z" fill="#7C55AE"/>
</svg>
