<svg width="1916" height="734" viewBox="0 0 1916 734" fill="none" xmlns="http://www.w3.org/2000/svg">
<mask id="path-1-inside-1_6_1294" fill="white">
<path d="M0 635C0 632.239 2.23858 630 5 630H59.1739C61.9353 630 64.1739 632.239 64.1739 635V734H0V635Z"/>
</mask>
<path d="M0 635C0 632.239 2.23858 630 5 630H59.1739C61.9353 630 64.1739 632.239 64.1739 635V734H0V635Z" fill="url(#paint0_linear_6_1294)"/>
<path d="M-1 635C-1 631.686 1.68629 629 5 629H59.1739C62.4876 629 65.1739 631.686 65.1739 635H63.1739C63.1739 632.791 61.3831 631 59.1739 631H5C2.79086 631 1 632.791 1 635H-1ZM64.1739 734H0H64.1739ZM-1 734V635C-1 631.686 1.68629 629 5 629V631C2.79086 631 1 632.791 1 635V734H-1ZM59.1739 629C62.4876 629 65.1739 631.686 65.1739 635V734H63.1739V635C63.1739 632.791 61.3831 631 59.1739 631V629Z" fill="#6025BF" mask="url(#path-1-inside-1_6_1294)"/>
<mask id="path-3-inside-2_6_1294" fill="white">
<path d="M84.1739 598C84.1739 595.239 86.4125 593 89.1739 593H143.348C146.109 593 148.348 595.239 148.348 598V734H84.1739V598Z"/>
</mask>
<path d="M84.1739 598C84.1739 595.239 86.4125 593 89.1739 593H143.348C146.109 593 148.348 595.239 148.348 598V734H84.1739V598Z" fill="url(#paint1_linear_6_1294)"/>
<path d="M83.1739 598C83.1739 594.686 85.8602 592 89.1739 592H143.348C146.662 592 149.348 594.686 149.348 598H147.348C147.348 595.791 145.557 594 143.348 594H89.1739C86.9648 594 85.1739 595.791 85.1739 598H83.1739ZM148.348 734H84.1739H148.348ZM83.1739 734V598C83.1739 594.686 85.8602 592 89.1739 592V594C86.9648 594 85.1739 595.791 85.1739 598V734H83.1739ZM143.348 592C146.662 592 149.348 594.686 149.348 598V734H147.348V598C147.348 595.791 145.557 594 143.348 594V592Z" fill="#6025BF" mask="url(#path-3-inside-2_6_1294)"/>
<mask id="path-5-inside-3_6_1294" fill="white">
<path d="M252.522 583C252.522 580.239 254.76 578 257.522 578H311.696C314.457 578 316.696 580.239 316.696 583V734H252.522V583Z"/>
</mask>
<path d="M252.522 583C252.522 580.239 254.76 578 257.522 578H311.696C314.457 578 316.696 580.239 316.696 583V734H252.522V583Z" fill="url(#paint2_linear_6_1294)"/>
<path d="M251.522 583C251.522 579.686 254.208 577 257.522 577H311.696C315.009 577 317.696 579.686 317.696 583H315.696C315.696 580.791 313.905 579 311.696 579H257.522C255.313 579 253.522 580.791 253.522 583H251.522ZM316.696 734H252.522H316.696ZM251.522 734V583C251.522 579.686 254.208 577 257.522 577V579C255.313 579 253.522 580.791 253.522 583V734H251.522ZM311.696 577C315.009 577 317.696 579.686 317.696 583V734H315.696V583C315.696 580.791 313.905 579 311.696 579V577Z" fill="#6025BF" mask="url(#path-5-inside-3_6_1294)"/>
<mask id="path-7-inside-4_6_1294" fill="white">
<path d="M336.696 564C336.696 561.239 338.934 559 341.696 559H395.87C398.631 559 400.87 561.239 400.87 564V734H336.696V564Z"/>
</mask>
<path d="M336.696 564C336.696 561.239 338.934 559 341.696 559H395.87C398.631 559 400.87 561.239 400.87 564V734H336.696V564Z" fill="url(#paint3_linear_6_1294)"/>
<path d="M335.696 564C335.696 560.686 338.382 558 341.696 558H395.87C399.183 558 401.87 560.686 401.87 564H399.87C399.87 561.791 398.079 560 395.87 560H341.696C339.486 560 337.696 561.791 337.696 564H335.696ZM400.87 734H336.696H400.87ZM335.696 734V564C335.696 560.686 338.382 558 341.696 558V560C339.486 560 337.696 561.791 337.696 564V734H335.696ZM395.87 558C399.183 558 401.87 560.686 401.87 564V734H399.87V564C399.87 561.791 398.079 560 395.87 560V558Z" fill="#6025BF" mask="url(#path-7-inside-4_6_1294)"/>
<mask id="path-9-inside-5_6_1294" fill="white">
<path d="M505.043 538C505.043 535.239 507.282 533 510.043 533H564.217C566.979 533 569.217 535.239 569.217 538V734H505.043V538Z"/>
</mask>
<path d="M505.043 538C505.043 535.239 507.282 533 510.043 533H564.217C566.979 533 569.217 535.239 569.217 538V734H505.043V538Z" fill="url(#paint4_linear_6_1294)"/>
<path d="M504.043 538C504.043 534.686 506.73 532 510.043 532H564.217C567.531 532 570.217 534.686 570.217 538H568.217C568.217 535.791 566.426 534 564.217 534H510.043C507.834 534 506.043 535.791 506.043 538H504.043ZM569.217 734H505.043H569.217ZM504.043 734V538C504.043 534.686 506.73 532 510.043 532V534C507.834 534 506.043 535.791 506.043 538V734H504.043ZM564.217 532C567.531 532 570.217 534.686 570.217 538V734H568.217V538C568.217 535.791 566.426 534 564.217 534V532Z" fill="#6025BF" mask="url(#path-9-inside-5_6_1294)"/>
<mask id="path-11-inside-6_6_1294" fill="white">
<path d="M589.217 515C589.217 512.239 591.456 510 594.217 510H648.391C651.153 510 653.391 512.239 653.391 515V734H589.217V515Z"/>
</mask>
<path d="M589.217 515C589.217 512.239 591.456 510 594.217 510H648.391C651.153 510 653.391 512.239 653.391 515V734H589.217V515Z" fill="url(#paint5_linear_6_1294)"/>
<path d="M588.217 515C588.217 511.686 590.904 509 594.217 509H648.391C651.705 509 654.391 511.686 654.391 515H652.391C652.391 512.791 650.6 511 648.391 511H594.217C592.008 511 590.217 512.791 590.217 515H588.217ZM653.391 734H589.217H653.391ZM588.217 734V515C588.217 511.686 590.904 509 594.217 509V511C592.008 511 590.217 512.791 590.217 515V734H588.217ZM648.391 509C651.705 509 654.391 511.686 654.391 515V734H652.391V515C652.391 512.791 650.6 511 648.391 511V509Z" fill="#6025BF" mask="url(#path-11-inside-6_6_1294)"/>
<mask id="path-13-inside-7_6_1294" fill="white">
<path d="M757.565 515C757.565 512.239 759.804 510 762.565 510H816.739C819.5 510 821.739 512.239 821.739 515V734H757.565V515Z"/>
</mask>
<path d="M757.565 515C757.565 512.239 759.804 510 762.565 510H816.739C819.5 510 821.739 512.239 821.739 515V734H757.565V515Z" fill="url(#paint6_linear_6_1294)"/>
<path d="M756.565 515C756.565 511.686 759.251 509 762.565 509H816.739C820.053 509 822.739 511.686 822.739 515H820.739C820.739 512.791 818.948 511 816.739 511H762.565C760.356 511 758.565 512.791 758.565 515H756.565ZM821.739 734H757.565H821.739ZM756.565 734V515C756.565 511.686 759.251 509 762.565 509V511C760.356 511 758.565 512.791 758.565 515V734H756.565ZM816.739 509C820.053 509 822.739 511.686 822.739 515V734H820.739V515C820.739 512.791 818.948 511 816.739 511V509Z" fill="#6025BF" mask="url(#path-13-inside-7_6_1294)"/>
<mask id="path-15-inside-8_6_1294" fill="white">
<path d="M841.739 538C841.739 535.239 843.978 533 846.739 533H900.913C903.674 533 905.913 535.239 905.913 538V734H841.739V538Z"/>
</mask>
<path d="M841.739 538C841.739 535.239 843.978 533 846.739 533H900.913C903.674 533 905.913 535.239 905.913 538V734H841.739V538Z" fill="url(#paint7_linear_6_1294)"/>
<path d="M840.739 538C840.739 534.686 843.425 532 846.739 532H900.913C904.227 532 906.913 534.686 906.913 538H904.913C904.913 535.791 903.122 534 900.913 534H846.739C844.53 534 842.739 535.791 842.739 538H840.739ZM905.913 734H841.739H905.913ZM840.739 734V538C840.739 534.686 843.425 532 846.739 532V534C844.53 534 842.739 535.791 842.739 538V734H840.739ZM900.913 532C904.227 532 906.913 534.686 906.913 538V734H904.913V538C904.913 535.791 903.122 534 900.913 534V532Z" fill="#6025BF" mask="url(#path-15-inside-8_6_1294)"/>
<mask id="path-17-inside-9_6_1294" fill="white">
<path d="M1010.09 481C1010.09 478.239 1012.33 476 1015.09 476H1069.26C1072.02 476 1074.26 478.239 1074.26 481V734H1010.09V481Z"/>
</mask>
<path d="M1010.09 481C1010.09 478.239 1012.33 476 1015.09 476H1069.26C1072.02 476 1074.26 478.239 1074.26 481V734H1010.09V481Z" fill="url(#paint8_linear_6_1294)"/>
<path d="M1009.09 481C1009.09 477.686 1011.77 475 1015.09 475H1069.26C1072.57 475 1075.26 477.686 1075.26 481H1073.26C1073.26 478.791 1071.47 477 1069.26 477H1015.09C1012.88 477 1011.09 478.791 1011.09 481H1009.09ZM1074.26 734H1010.09H1074.26ZM1009.09 734V481C1009.09 477.686 1011.77 475 1015.09 475V477C1012.88 477 1011.09 478.791 1011.09 481V734H1009.09ZM1069.26 475C1072.57 475 1075.26 477.686 1075.26 481V734H1073.26V481C1073.26 478.791 1071.47 477 1069.26 477V475Z" fill="#6025BF" mask="url(#path-17-inside-9_6_1294)"/>
<mask id="path-19-inside-10_6_1294" fill="white">
<path d="M1094.26 428C1094.26 425.239 1096.5 423 1099.26 423H1153.43C1156.2 423 1158.43 425.239 1158.43 428V734H1094.26V428Z"/>
</mask>
<path d="M1094.26 428C1094.26 425.239 1096.5 423 1099.26 423H1153.43C1156.2 423 1158.43 425.239 1158.43 428V734H1094.26V428Z" fill="url(#paint9_linear_6_1294)"/>
<path d="M1093.26 428C1093.26 424.686 1095.95 422 1099.26 422H1153.43C1156.75 422 1159.43 424.686 1159.43 428H1157.43C1157.43 425.791 1155.64 424 1153.43 424H1099.26C1097.05 424 1095.26 425.791 1095.26 428H1093.26ZM1158.43 734H1094.26H1158.43ZM1093.26 734V428C1093.26 424.686 1095.95 422 1099.26 422V424C1097.05 424 1095.26 425.791 1095.26 428V734H1093.26ZM1153.43 422C1156.75 422 1159.43 424.686 1159.43 428V734H1157.43V428C1157.43 425.791 1155.64 424 1153.43 424V422Z" fill="#6025BF" mask="url(#path-19-inside-10_6_1294)"/>
<mask id="path-21-inside-11_6_1294" fill="white">
<path d="M1262.61 456C1262.61 453.239 1264.85 451 1267.61 451H1321.78C1324.54 451 1326.78 453.239 1326.78 456V734H1262.61V456Z"/>
</mask>
<path d="M1262.61 456C1262.61 453.239 1264.85 451 1267.61 451H1321.78C1324.54 451 1326.78 453.239 1326.78 456V734H1262.61V456Z" fill="url(#paint10_linear_6_1294)"/>
<path d="M1261.61 456C1261.61 452.686 1264.29 450 1267.61 450H1321.78C1325.1 450 1327.78 452.686 1327.78 456H1325.78C1325.78 453.791 1323.99 452 1321.78 452H1267.61C1265.4 452 1263.61 453.791 1263.61 456H1261.61ZM1326.78 734H1262.61H1326.78ZM1261.61 734V456C1261.61 452.686 1264.29 450 1267.61 450V452C1265.4 452 1263.61 453.791 1263.61 456V734H1261.61ZM1321.78 450C1325.1 450 1327.78 452.686 1327.78 456V734H1325.78V456C1325.78 453.791 1323.99 452 1321.78 452V450Z" fill="#6025BF" mask="url(#path-21-inside-11_6_1294)"/>
<mask id="path-23-inside-12_6_1294" fill="white">
<path d="M1346.78 388C1346.78 385.239 1349.02 383 1351.78 383H1405.96C1408.72 383 1410.96 385.239 1410.96 388V734H1346.78V388Z"/>
</mask>
<path d="M1346.78 388C1346.78 385.239 1349.02 383 1351.78 383H1405.96C1408.72 383 1410.96 385.239 1410.96 388V734H1346.78V388Z" fill="url(#paint11_linear_6_1294)"/>
<path d="M1345.78 388C1345.78 384.686 1348.47 382 1351.78 382H1405.96C1409.27 382 1411.96 384.686 1411.96 388H1409.96C1409.96 385.791 1408.17 384 1405.96 384H1351.78C1349.57 384 1347.78 385.791 1347.78 388H1345.78ZM1410.96 734H1346.78H1410.96ZM1345.78 734V388C1345.78 384.686 1348.47 382 1351.78 382V384C1349.57 384 1347.78 385.791 1347.78 388V734H1345.78ZM1405.96 382C1409.27 382 1411.96 384.686 1411.96 388V734H1409.96V388C1409.96 385.791 1408.17 384 1405.96 384V382Z" fill="#6025BF" mask="url(#path-23-inside-12_6_1294)"/>
<mask id="path-25-inside-13_6_1294" fill="white">
<path d="M1515.13 320C1515.13 317.239 1517.37 315 1520.13 315H1574.3C1577.07 315 1579.3 317.239 1579.3 320V734H1515.13V320Z"/>
</mask>
<path d="M1515.13 320C1515.13 317.239 1517.37 315 1520.13 315H1574.3C1577.07 315 1579.3 317.239 1579.3 320V734H1515.13V320Z" fill="url(#paint12_linear_6_1294)"/>
<path d="M1514.13 320C1514.13 316.686 1516.82 314 1520.13 314H1574.3C1577.62 314 1580.3 316.686 1580.3 320H1578.3C1578.3 317.791 1576.51 316 1574.3 316H1520.13C1517.92 316 1516.13 317.791 1516.13 320H1514.13ZM1579.3 734H1515.13H1579.3ZM1514.13 734V320C1514.13 316.686 1516.82 314 1520.13 314V316C1517.92 316 1516.13 317.791 1516.13 320V734H1514.13ZM1574.3 314C1577.62 314 1580.3 316.686 1580.3 320V734H1578.3V320C1578.3 317.791 1576.51 316 1574.3 316V314Z" fill="#6025BF" mask="url(#path-25-inside-13_6_1294)"/>
<mask id="path-27-inside-14_6_1294" fill="white">
<path d="M1599.3 281C1599.3 278.239 1601.54 276 1604.3 276H1658.48C1661.24 276 1663.48 278.239 1663.48 281V734H1599.3V281Z"/>
</mask>
<path d="M1599.3 281C1599.3 278.239 1601.54 276 1604.3 276H1658.48C1661.24 276 1663.48 278.239 1663.48 281V734H1599.3V281Z" fill="url(#paint13_linear_6_1294)"/>
<path d="M1598.3 281C1598.3 277.686 1600.99 275 1604.3 275H1658.48C1661.79 275 1664.48 277.686 1664.48 281H1662.48C1662.48 278.791 1660.69 277 1658.48 277H1604.3C1602.1 277 1600.3 278.791 1600.3 281H1598.3ZM1663.48 734H1599.3H1663.48ZM1598.3 734V281C1598.3 277.686 1600.99 275 1604.3 275V277C1602.1 277 1600.3 278.791 1600.3 281V734H1598.3ZM1658.48 275C1661.79 275 1664.48 277.686 1664.48 281V734H1662.48V281C1662.48 278.791 1660.69 277 1658.48 277V275Z" fill="#6025BF" mask="url(#path-27-inside-14_6_1294)"/>
<mask id="path-29-inside-15_6_1294" fill="white">
<path d="M1767.65 4.99999C1767.65 2.23857 1769.89 0 1772.65 0H1826.83C1829.59 0 1831.83 2.23858 1831.83 5V734H1767.65V4.99999Z"/>
</mask>
<path d="M1767.65 4.99999C1767.65 2.23857 1769.89 0 1772.65 0H1826.83C1829.59 0 1831.83 2.23858 1831.83 5V734H1767.65V4.99999Z" fill="url(#paint14_linear_6_1294)"/>
<path d="M1766.65 5C1766.65 1.68629 1769.34 -1 1772.65 -1H1826.83C1830.14 -1 1832.83 1.68629 1832.83 5H1830.83C1830.83 2.79086 1829.04 1 1826.83 1H1772.65C1770.44 1 1768.65 2.79086 1768.65 5H1766.65ZM1831.83 734H1767.65H1831.83ZM1766.65 734V5C1766.65 1.68629 1769.34 -1 1772.65 -1V1C1770.44 1 1768.65 2.79086 1768.65 5V734H1766.65ZM1826.83 -1C1830.14 -1 1832.83 1.68629 1832.83 5V734H1830.83V5C1830.83 2.79086 1829.04 1 1826.83 1V-1Z" fill="#6025BF" mask="url(#path-29-inside-15_6_1294)"/>
<mask id="path-31-inside-16_6_1294" fill="white">
<path d="M1851.83 201C1851.83 198.239 1854.06 196 1856.83 196H1911C1913.76 196 1916 198.239 1916 201V734H1851.83V201Z"/>
</mask>
<path d="M1851.83 201C1851.83 198.239 1854.06 196 1856.83 196H1911C1913.76 196 1916 198.239 1916 201V734H1851.83V201Z" fill="url(#paint15_linear_6_1294)"/>
<path d="M1850.83 201C1850.83 197.686 1853.51 195 1856.83 195H1911C1914.31 195 1917 197.686 1917 201H1915C1915 198.791 1913.21 197 1911 197H1856.83C1854.62 197 1852.83 198.791 1852.83 201H1850.83ZM1916 734H1851.83H1916ZM1850.83 734V201C1850.83 197.686 1853.51 195 1856.83 195V197C1854.62 197 1852.83 198.791 1852.83 201V734H1850.83ZM1911 195C1914.31 195 1917 197.686 1917 201V734H1915V201C1915 198.791 1913.21 197 1911 197V195Z" fill="#6025BF" mask="url(#path-31-inside-16_6_1294)"/>
<defs>
<linearGradient id="paint0_linear_6_1294" x1="64.1744" y1="630" x2="64.1744" y2="734" gradientUnits="userSpaceOnUse">
<stop stop-color="#4C1D98"/>
<stop offset="0.39" stop-color="#2C0D66"/>
<stop offset="0.8" stop-color="#150330"/>
<stop offset="1" stop-color="#1A0930"/>
</linearGradient>
<linearGradient id="paint1_linear_6_1294" x1="148.348" y1="593" x2="148.348" y2="734" gradientUnits="userSpaceOnUse">
<stop stop-color="#4C1D98"/>
<stop offset="0.39" stop-color="#2C0D66"/>
<stop offset="0.8" stop-color="#150330"/>
<stop offset="1" stop-color="#1A0930"/>
</linearGradient>
<linearGradient id="paint2_linear_6_1294" x1="316.696" y1="578" x2="316.696" y2="734" gradientUnits="userSpaceOnUse">
<stop stop-color="#4C1D98"/>
<stop offset="0.39" stop-color="#2C0D66"/>
<stop offset="0.8" stop-color="#150330"/>
<stop offset="1" stop-color="#1A0930"/>
</linearGradient>
<linearGradient id="paint3_linear_6_1294" x1="400.87" y1="559" x2="400.87" y2="734" gradientUnits="userSpaceOnUse">
<stop stop-color="#4C1D98"/>
<stop offset="0.39" stop-color="#2C0D66"/>
<stop offset="0.8" stop-color="#150330"/>
<stop offset="1" stop-color="#1A0930"/>
</linearGradient>
<linearGradient id="paint4_linear_6_1294" x1="569.218" y1="533" x2="569.218" y2="734" gradientUnits="userSpaceOnUse">
<stop stop-color="#4C1D98"/>
<stop offset="0.39" stop-color="#2C0D66"/>
<stop offset="0.8" stop-color="#150330"/>
<stop offset="1" stop-color="#1A0930"/>
</linearGradient>
<linearGradient id="paint5_linear_6_1294" x1="653.392" y1="510" x2="653.392" y2="734" gradientUnits="userSpaceOnUse">
<stop stop-color="#4C1D98"/>
<stop offset="0.39" stop-color="#2C0D66"/>
<stop offset="0.8" stop-color="#150330"/>
<stop offset="1" stop-color="#1A0930"/>
</linearGradient>
<linearGradient id="paint6_linear_6_1294" x1="821.739" y1="510" x2="821.739" y2="734" gradientUnits="userSpaceOnUse">
<stop stop-color="#4C1D98"/>
<stop offset="0.39" stop-color="#2C0D66"/>
<stop offset="0.8" stop-color="#150330"/>
<stop offset="1" stop-color="#1A0930"/>
</linearGradient>
<linearGradient id="paint7_linear_6_1294" x1="905.913" y1="533" x2="905.913" y2="734" gradientUnits="userSpaceOnUse">
<stop stop-color="#4C1D98"/>
<stop offset="0.39" stop-color="#2C0D66"/>
<stop offset="0.8" stop-color="#150330"/>
<stop offset="1" stop-color="#1A0930"/>
</linearGradient>
<linearGradient id="paint8_linear_6_1294" x1="1074.26" y1="476" x2="1074.26" y2="734" gradientUnits="userSpaceOnUse">
<stop stop-color="#4C1D98"/>
<stop offset="0.39" stop-color="#2C0D66"/>
<stop offset="0.8" stop-color="#150330"/>
<stop offset="1" stop-color="#1A0930"/>
</linearGradient>
<linearGradient id="paint9_linear_6_1294" x1="1158.44" y1="423" x2="1158.44" y2="734" gradientUnits="userSpaceOnUse">
<stop stop-color="#4C1D98"/>
<stop offset="0.39" stop-color="#2C0D66"/>
<stop offset="0.8" stop-color="#150330"/>
<stop offset="1" stop-color="#1A0930"/>
</linearGradient>
<linearGradient id="paint10_linear_6_1294" x1="1326.78" y1="451" x2="1326.78" y2="734" gradientUnits="userSpaceOnUse">
<stop stop-color="#4C1D98"/>
<stop offset="0.39" stop-color="#2C0D66"/>
<stop offset="0.8" stop-color="#150330"/>
<stop offset="1" stop-color="#1A0930"/>
</linearGradient>
<linearGradient id="paint11_linear_6_1294" x1="1410.96" y1="383" x2="1410.96" y2="734" gradientUnits="userSpaceOnUse">
<stop stop-color="#4C1D98"/>
<stop offset="0.39" stop-color="#2C0D66"/>
<stop offset="0.8" stop-color="#150330"/>
<stop offset="1" stop-color="#1A0930"/>
</linearGradient>
<linearGradient id="paint12_linear_6_1294" x1="1579.3" y1="315" x2="1579.3" y2="734" gradientUnits="userSpaceOnUse">
<stop stop-color="#4C1D98"/>
<stop offset="0.39" stop-color="#2C0D66"/>
<stop offset="0.8" stop-color="#150330"/>
<stop offset="1" stop-color="#1A0930"/>
</linearGradient>
<linearGradient id="paint13_linear_6_1294" x1="1663.48" y1="276" x2="1663.48" y2="734" gradientUnits="userSpaceOnUse">
<stop stop-color="#4C1D98"/>
<stop offset="0.39" stop-color="#2C0D66"/>
<stop offset="0.8" stop-color="#150330"/>
<stop offset="1" stop-color="#1A0930"/>
</linearGradient>
<linearGradient id="paint14_linear_6_1294" x1="1831.83" y1="0" x2="1831.83" y2="734" gradientUnits="userSpaceOnUse">
<stop stop-color="#4C1D98"/>
<stop offset="0.39" stop-color="#2C0D66"/>
<stop offset="0.8" stop-color="#150330"/>
<stop offset="1" stop-color="#1A0930"/>
</linearGradient>
<linearGradient id="paint15_linear_6_1294" x1="1916" y1="196" x2="1916" y2="734" gradientUnits="userSpaceOnUse">
<stop stop-color="#4C1D98"/>
<stop offset="0.39" stop-color="#2C0D66"/>
<stop offset="0.8" stop-color="#150330"/>
<stop offset="1" stop-color="#1A0930"/>
</linearGradient>
</defs>
</svg>
