<svg width="22" height="20" viewBox="0 0 22 20" fill="none" xmlns="http://www.w3.org/2000/svg">
<path d="M0.387608 9.1846L5.45685 11.0766L7.41896 17.3867C7.5445 17.7908 8.0387 17.9402 8.36672 17.672L11.1924 15.3685C11.4886 15.1272 11.9105 15.1151 12.22 15.3398L17.3165 19.04C17.6674 19.2951 18.1646 19.1028 18.2526 18.6788L21.986 0.720094C22.0821 0.256921 21.627 -0.129473 21.186 0.0411007L0.381668 8.06678C-0.131738 8.26478 -0.127265 8.99166 0.387608 9.1846ZM7.10274 10.0694L17.0099 3.96759C17.188 3.85825 17.3712 4.099 17.2183 4.24083L9.04197 11.8411C8.75458 12.1086 8.56919 12.4666 8.51668 12.8552L8.23816 14.9193C8.20128 15.1948 7.81415 15.2222 7.7381 14.9555L6.66692 11.1917C6.54424 10.7624 6.72302 10.3038 7.10274 10.0694Z" fill="#7C55AE"/>
</svg>
